# xmcd CD database file
#
# Track frame offsets:
#	150
#	19327
#	41662
#	54567
#	79067
#	99442
#	127170
#	150017
#	175950
#	185467
#	199687
#	215677
#
# Disc length: 3113 seconds
#
# Revision: 0
# Processed by: cddbd v1.5.1PL0 Copyright (c) Steve Scherf et al.
# Submitted via: CDex 1.51
#
DISCID=9f0c270c
DTITLE=The Philadelphia Experiment - The Philadelphia Experiment
DYEAR=2001
DGENRE=Jazz
TTITLE0=Philadelphia Experiment
TTITLE1=Grover
TTITLE2=Lesson #4
TTITLE3=Call For All Demons
TTITLE4=Trouble Man Theme
TTITLE5=Ain`t It The Truth
TTITLE6=Lie Lfe
TTITLE7=The Miles Hit
TTITLE8=(re)MOVEd
TTITLE9=Philadelphia Freedom
TTITLE10=Mister Magic
TTITLE11=Just The Two Of Us
EXTD=YEAR: 2001
EXTT0=
EXTT1=
EXTT2=
EXTT3=
EXTT4=
EXTT5=
EXTT6=
EXTT7=
EXTT8=
EXTT9=
EXTT10=
EXTT11=
PLAYORDER=
